<?xml version="1.0" encoding="UTF-8"?>
<svg width="28px" height="23px" viewBox="0 0 28 23" version="1.1" xmlns="http://www.w3.org/2000/svg" xmlns:xlink="http://www.w3.org/1999/xlink">
    <!-- Generator: Sketch 63.1 (92452) - https://sketch.com -->
    <title>hamberger_bar</title>
    <desc>Created with Sketch.</desc>
    <g id="Page-1" stroke="none" stroke-width="1" fill="none" fill-rule="evenodd">
        <g id="main" transform="translate(-237.000000, -19.000000)" fill="#FFFFFF">
            <g id="hamberger_bar-copy-3" transform="translate(236.000000, 16.000000)">
                <path d="M0.246687188,10.3866533 L30.060897,14.8770642 C30.7238121,14.976908 31.2399896,15.5045082 31.3253016,16.1694497 L31.4285714,16.9743583 C31.53178,17.7787894 30.9633268,18.5145768 30.1588957,18.6177853 C30.0241469,18.6350736 29.8876509,18.6335798 29.7533128,18.6133467 L-0.0608969686,14.1229358 C-0.723812129,14.023092 -1.23998957,13.4954918 -1.3253016,12.8305503 L-1.42857143,12.0256417 C-1.53177999,11.2212106 -0.96332679,10.4854232 -0.158895673,10.3822147 C-0.024146921,10.3649264 0.112349059,10.3664202 0.246687188,10.3866533 Z" id="Rectangle-Copy-5" transform="translate(15.000000, 14.500000) rotate(-330.000000) translate(-15.000000, -14.500000) "></path>
                <path d="M-0.0608969686,14.8770642 L29.7533128,10.3866533 C30.5552926,10.2658646 31.3033442,10.8180791 31.4241328,11.6200588 C31.4443659,11.754397 31.4458597,11.890893 31.4285714,12.0256417 L31.3253016,12.8305503 C31.2399896,13.4954918 30.7238121,14.023092 30.060897,14.1229358 L0.246687188,18.6133467 C-0.555292568,18.7341354 -1.30334418,18.1819209 -1.42413284,17.3799412 C-1.44436593,17.245603 -1.4458597,17.109107 -1.42857143,16.9743583 L-1.3253016,16.1694497 C-1.23998957,15.5045082 -0.723812129,14.976908 -0.0608969686,14.8770642 Z" id="Rectangle-Copy-6" transform="translate(15.000000, 14.500000) rotate(-30.000000) translate(-15.000000, -14.500000) "></path>
            </g>
        </g>
    </g>
</svg>